<?xml version="1.0" standalone="no"?>
<!DOCTYPE svg PUBLIC "-//W3C//DTD SVG 20010904//EN"
 "http://www.w3.org/TR/2001/REC-SVG-20010904/DTD/svg10.dtd">
<svg version="1.0" xmlns="http://www.w3.org/2000/svg"
 width="164.000000pt" height="188.000000pt" viewBox="0 0 164.000000 188.000000"
 preserveAspectRatio="xMidYMid meet">

<g transform="translate(0.000000,188.000000) scale(0.100000,-0.100000)"
fill="#000000" stroke="none">
<path d="M580 1851 c0 -6 9 -15 20 -21 13 -7 20 -21 20 -40 0 -43 -36 -40 -83
5 -40 39 -67 48 -43 14 19 -27 7 -61 -37 -106 -30 -32 -22 -45 13 -23 42 26
52 -50 20 -152 -23 -74 -26 -104 -6 -68 31 54 45 86 51 118 4 17 9 32 12 32
16 0 71 -42 81 -62 25 -50 42 -102 42 -127 l0 -26 -198 -3 c-272 -5 -362 -20
-331 -58 8 -9 34 -14 80 -14 39 0 69 -4 69 -10 0 -5 9 -10 19 -10 22 0 36 -29
21 -44 -5 -5 -10 -16 -10 -24 0 -7 -6 -19 -13 -25 -31 -31 -106 -85 -140 -102
-21 -11 -48 -31 -60 -44 l-22 -24 68 6 c47 4 81 14 115 34 26 15 49 30 52 33
3 3 24 15 47 28 53 28 112 29 141 2 12 -11 23 -20 26 -20 10 0 56 -48 56 -58
0 -5 7 -12 15 -16 8 -3 15 -15 15 -26 0 -11 4 -20 8 -20 27 0 48 -249 22 -265
-6 -3 -10 -15 -10 -26 0 -10 -4 -27 -9 -37 -5 -9 -21 -46 -37 -82 -16 -36 -32
-67 -36 -70 -12 -9 -68 -124 -68 -140 0 -9 -4 -20 -8 -25 -4 -6 -14 -27 -21
-49 -11 -31 -11 -43 0 -62 20 -39 44 -27 68 36 23 57 93 200 105 213 10 11 77
144 112 222 7 17 18 64 24 105 14 102 -4 191 -51 252 -19 24 -38 49 -44 56
-18 23 -61 62 -70 62 -13 0 -76 71 -70 80 3 6 17 10 31 10 13 0 24 5 24 10 0
6 18 10 40 10 22 0 40 5 40 10 0 6 18 10 40 10 50 0 63 22 30 50 -13 11 -29
20 -36 20 -7 0 -15 22 -19 60 -4 36 -14 68 -26 81 -10 12 -19 28 -19 36 0 7
-4 13 -10 13 -13 0 -13 25 -1 48 5 9 12 25 15 35 7 22 24 13 36 -19 5 -13 14
-24 20 -24 19 0 10 47 -15 84 -14 20 -25 40 -25 44 0 35 -24 80 -50 95 -16 10
-30 14 -30 8z m18 -121 c20 0 22 -5 22 -49 0 -28 -3 -52 -8 -54 -36 -23 -112
56 -91 95 8 14 17 18 32 14 12 -3 32 -6 45 -6z"/>
<path d="M1144 1513 c-10 -50 -28 -87 -54 -117 -42 -48 -74 -76 -88 -76 -7 0
-42 -29 -76 -65 -34 -36 -68 -65 -74 -65 -7 0 -12 -7 -12 -15 0 -19 57 -20 85
-2 11 7 39 19 63 27 23 7 42 17 42 22 0 4 6 8 14 8 8 0 16 5 18 12 6 16 160
17 166 0 2 -6 15 -12 28 -12 13 0 24 -4 24 -9 0 -5 15 -14 33 -21 17 -7 41
-16 52 -20 105 -45 135 -54 174 -54 44 -1 46 0 49 30 3 28 -1 32 -37 44 -23 7
-41 17 -41 22 0 4 -9 8 -20 8 -11 0 -20 5 -20 10 0 6 -6 10 -14 10 -23 0 -76
34 -82 53 -3 9 -13 17 -23 17 -10 0 -33 18 -52 41 -19 23 -42 51 -52 62 -10
11 -20 31 -23 44 -4 13 -10 23 -15 23 -5 0 -9 5 -9 11 0 13 -25 39 -39 39 -6
0 -13 -12 -17 -27z"/>
<path d="M1052 1148 c-7 -7 -12 -18 -12 -26 0 -13 83 -96 158 -157 46 -38 72
-94 72 -155 0 -47 -2 -50 -25 -50 -28 0 -88 35 -134 77 -69 65 -117 93 -158
93 -108 0 -89 -81 40 -167 20 -14 37 -29 37 -32 0 -4 14 -15 30 -24 30 -18 41
-47 17 -47 -7 0 -50 5 -96 10 -53 7 -87 8 -94 1 -12 -12 53 -100 76 -101 9 0
17 -4 17 -10 0 -5 22 -10 49 -10 109 0 194 -60 207 -146 3 -27 13 -61 20 -76
8 -15 14 -39 14 -54 0 -17 13 -40 39 -66 35 -35 42 -38 62 -28 20 11 21 17 15
91 -4 43 -11 90 -16 105 -6 14 -10 72 -10 128 0 89 3 105 19 120 11 10 29 43
42 74 12 31 26 61 31 67 17 19 8 96 -17 145 -28 54 -93 125 -140 152 -31 18
-43 26 -112 71 -45 29 -109 37 -131 15z m143 -51 c130 -81 235 -203 235 -272
0 -44 -32 -127 -68 -179 -43 -61 -44 -92 -12 -294 13 -78 20 -145 16 -149 -28
-28 -88 91 -108 212 -8 50 -16 66 -46 94 -41 38 -89 61 -129 61 -45 0 -143 42
-143 62 0 15 10 16 89 11 l88 -6 7 28 c9 34 -26 74 -92 106 -24 12 -46 28 -49
35 -3 8 -11 14 -17 14 -13 0 -56 53 -56 69 0 15 37 23 69 16 16 -3 39 -18 52
-32 13 -14 57 -52 98 -84 88 -70 126 -77 160 -30 34 47 28 99 -19 167 -21 33
-53 70 -71 84 -17 14 -52 41 -77 60 -52 40 -61 56 -35 63 27 7 53 -2 108 -36z"/>
<path d="M505 966 c-27 -51 -69 -66 -178 -66 -51 1 -112 6 -137 11 -25 6 -64
13 -87 16 l-43 5 0 -50 c0 -28 4 -54 10 -57 5 -3 17 -23 25 -43 9 -20 23 -48
31 -62 33 -58 75 -153 81 -183 8 -40 79 -163 105 -181 10 -8 27 -12 37 -9 20
5 27 18 60 113 44 126 58 161 70 173 6 6 11 24 11 40 0 30 62 171 80 182 17
10 40 75 40 111 0 33 -1 34 -43 34 -40 0 -46 -3 -62 -34z m75 -4 c0 -4 -13
-28 -29 -53 -46 -74 -91 -175 -91 -207 0 -16 -7 -35 -15 -42 -8 -7 -15 -17
-15 -24 0 -6 -15 -51 -34 -101 -19 -49 -37 -102 -41 -117 -3 -16 -10 -28 -15
-28 -16 0 -57 74 -96 172 -43 108 -119 265 -142 291 -25 28 -4 39 57 27 30 -5
108 -10 175 -10 135 0 168 11 202 69 17 28 44 42 44 23z"/>
<path d="M220 841 c-12 -23 -14 -121 -2 -121 5 0 14 -18 21 -40 15 -49 66
-102 95 -98 32 5 95 130 96 190 0 66 -31 88 -129 88 -59 0 -72 -3 -81 -19z
m163 -15 c19 -15 24 -90 7 -101 -5 -3 -10 -18 -10 -32 0 -25 -35 -93 -48 -93
-25 2 -82 78 -82 109 0 11 -4 23 -10 26 -18 11 -12 83 8 94 25 15 114 13 135
-3z"/>
<path d="M198 156 c-68 -15 -91 -31 -82 -60 11 -38 33 -46 126 -46 52 0 88 -4
88 -10 0 -5 9 -10 20 -10 11 0 20 4 20 8 0 5 151 12 336 15 327 7 514 21 514
38 0 5 21 9 46 9 38 0 44 2 35 14 -12 14 -28 17 -211 41 -146 19 -804 20 -892
1z"/>
</g>
</svg>
